<?xml version="1.0" encoding="UTF-8"?>
<svg id="Layer_2" data-name="Layer 2" xmlns="http://www.w3.org/2000/svg" viewBox="0 0 131.97 23.2">
  <defs>
    <style>
      .cls-1 {
        fill: #0078b0;
      }

      .cls-1, .cls-2, .cls-3, .cls-4, .cls-5 {
        stroke-width: 0px;
      }

      .cls-1, .cls-2, .cls-3, .cls-5 {
        fill-rule: evenodd;
      }

      .cls-2 {
        fill: #ffc722;
      }

      .cls-3 {
        fill: #c42031;
      }

      .cls-4 {
        fill: #231f20;
      }

      .cls-5 {
        fill: #009450;
      }
    </style>
  </defs>
  <g id="Sponsors_01" data-name="Sponsors 01">
    <g id="Layer_1-2" data-name="Layer 1-2">
      <g>
        <path class="cls-2" d="M125.76.65c7.76,5.39,4.52,17.91-3.77,19.26h0c10.65,0,14.1-14.43,3.77-19.26"/>
        <path class="cls-1" d="M117.49.57c9.25-1.36,13.04,10.06,8.99,15.34,6.7-6.75,1.34-18.67-8.99-15.34"/>
        <path class="cls-5" d="M112.03,6.15c4.56-6.75,14.03-2.57,14.98,4.25,1.09-8.44-10.03-13.11-14.98-4.25"/>
        <path class="cls-3" d="M111.81,11.2c1.11-7.01,10.23-7.74,13.52-2.82-2.69-6.98-13.34-6.12-13.52,2.82"/>
        <g>
          <path class="cls-4" d="M0,7.46h3.71l3.09,8.11,3.02-8.11h3.64v12.4h-2.79v-8.71l-3.43,8.71h-1.27l-3.45-8.71v8.71H0V7.46Z"/>
          <path class="cls-4" d="M21.03,18.77c-.64.96-1.6,1.29-2.68,1.29-1.76,0-3.08-.88-3.08-2.69,0-2.3,2.15-2.92,4.11-2.92h1.63c0-1.22-.12-2.04-1.54-2.04-.8,0-1.58.36-1.85,1.17l-1.92-.84c.59-1.63,2.43-2.15,4.07-2.15,2.19,0,3.73.94,3.73,3.37v5.91h-2.46v-1.09ZM20.03,15.92c-.9,0-2.31.07-2.31,1.29,0,.81.6,1.09,1.33,1.09.98,0,1.95-.52,1.95-1.62v-.76h-.97Z"/>
          <path class="cls-4" d="M25.65,10.79h2.52v1.44c.58-1.12,1.82-1.65,3.07-1.65,2.12,0,3.02,1.53,3.02,3.51v5.78h-2.52v-5.41c0-1.13-.51-1.82-1.68-1.82-1.24,0-1.9.8-1.9,2v5.23h-2.52v-9.07h0Z"/>
          <path class="cls-4" d="M41.59,18.77c-.64.96-1.6,1.29-2.68,1.29-1.76,0-3.08-.88-3.08-2.69,0-2.3,2.15-2.92,4.11-2.92h1.63c0-1.22-.12-2.04-1.54-2.04-.8,0-1.58.36-1.85,1.17l-1.92-.84c.59-1.63,2.43-2.15,4.07-2.15,2.19,0,3.73.94,3.73,3.37v5.91h-2.46v-1.09ZM40.6,15.92c-.9,0-2.31.07-2.31,1.29,0,.81.6,1.09,1.33,1.09.98,0,1.95-.52,1.95-1.62v-.76h-.97Z"/>
          <path class="cls-4" d="M47.97,20.16c.38.92,1.35,1.21,2.29,1.21,1.46,0,2.28-.7,2.28-2.22v-1.37c-.59,1.02-1.74,1.69-2.91,1.69-2.57,0-3.95-2.05-3.95-4.45s1.52-4.43,4.06-4.43c1.18,0,2.19.45,2.81,1.57v-1.36h2.5v8.36c0,2.96-2.12,4.06-4.78,4.06-1.7,0-3.58-.45-4.26-2.19l1.97-.86h0ZM52.6,14.99c0-1.41-.69-2.5-2.2-2.5s-2.17,1.19-2.17,2.63c0,1.31.72,2.45,2.19,2.45s2.18-1.19,2.18-2.58h0Z"/>
          <path class="cls-4" d="M65.56,17.92c-.7,1.64-2.49,2.13-4.04,2.13-3,0-4.82-1.85-4.82-4.76,0-2.72,1.93-4.72,4.68-4.72,1.76,0,3.34.81,4.02,2.47.38.93.38,1.89.38,2.84h-6.54c.07,1.4.77,2.38,2.25,2.38.98,0,1.73-.25,2.2-1.17l1.85.82h0ZM63.34,14.35c-.07-1.24-.67-2.03-1.92-2.03s-1.97.86-2.13,2.03h4.06,0Z"/>
          <path class="cls-4" d="M67.76,7.46h7.86v1.54h-5.94v3.78h4.84v1.52h-4.84v4.02h6.23v1.54h-8.15V7.46h0Z"/>
          <path class="cls-4" d="M77.9,10.78h1.8v1.44c.54-1.13,1.74-1.61,2.97-1.61,2.2,0,3.24,1.57,3.24,3.66v5.59h-1.8v-5.54c0-1.4-.66-2.19-2.05-2.19-1.47,0-2.35.89-2.35,2.31v5.42h-1.8v-9.08h0Z"/>
          <path class="cls-4" d="M89.54,20.36c.47,1.06,1.65,1.41,2.72,1.41,1.67,0,2.83-.85,2.83-2.6v-1.34c-.64,1.07-1.91,1.7-3.14,1.7-2.55,0-4.06-2.01-4.06-4.38s1.64-4.54,4.15-4.54c1.23,0,2.41.49,3.05,1.57v-1.41h1.79v8.43c0,2.76-2.07,3.97-4.66,3.97-1.68,0-3.33-.51-4.1-2.2l1.42-.63ZM95.14,14.99c0-1.67-.92-2.96-2.69-2.96-1.85,0-2.73,1.42-2.73,3.12,0,1.53,1.01,2.95,2.63,2.95,1.79,0,2.78-1.4,2.78-3.12h0Z"/>
          <path class="cls-4" d="M100.16,7.08c.6,0,1.12.47,1.12,1.09s-.51,1.09-1.12,1.09-1.12-.48-1.12-1.09.51-1.09,1.12-1.09ZM99.29,10.81h1.79v9.05h-1.79v-9.05Z"/>
          <path class="cls-4" d="M103.83,10.78h1.8v1.44c.54-1.13,1.74-1.61,2.97-1.61,2.2,0,3.24,1.57,3.24,3.66v5.59h-1.8v-5.54c0-1.4-.66-2.19-2.05-2.19-1.47,0-2.35.89-2.35,2.31v5.42h-1.8v-9.08h0Z"/>
          <path class="cls-4" d="M122.21,17.83c-.8,1.54-2.22,2.2-3.84,2.2-2.86,0-4.55-2.03-4.55-4.67s1.71-4.74,4.39-4.74c3.17,0,4.18,2.25,4.18,5.08h-6.73c0,1.67.89,2.94,2.62,2.94,1.11,0,1.96-.52,2.44-1.44l1.49.64h0ZM120.6,14.41c-.09-1.46-.86-2.42-2.33-2.42s-2.36,1.06-2.57,2.42h4.9Z"/>
        </g>
      </g>
    </g>
  </g>
</svg>