<?xml version="1.0" encoding="utf-8"?>
<!-- Generator: Adobe Illustrator 28.2.0, SVG Export Plug-In . SVG Version: 6.00 Build 0)  -->
<svg version="1.1" id="Layer_2_00000145043061183879767830000011438804944086573980_"
	 xmlns="http://www.w3.org/2000/svg" xmlns:xlink="http://www.w3.org/1999/xlink" x="0px" y="0px" viewBox="0 0 133.3 127.5"
	 style="enable-background:new 0 0 133.3 127.5;" xml:space="preserve">
<style type="text/css">
	.st0{fill:#FFB600;}
	.st1{opacity:0.5;}
	.st2{clip-path:url(#SVGID_00000096026361877577926450000007697936823886602914_);}
	.st3{opacity:0;fill:#FFD991;}
	.st4{opacity:4.975124e-03;fill:#FFD991;}
	.st5{opacity:9.950249e-03;fill:#FFD991;}
	.st6{opacity:1.492537e-02;fill:#FFD991;}
	.st7{opacity:1.990050e-02;fill:#FFD991;}
	.st8{opacity:2.487562e-02;fill:#FFD991;}
	.st9{opacity:2.985075e-02;fill:#FFD991;}
	.st10{opacity:3.482587e-02;fill:#FFD991;}
	.st11{opacity:3.980099e-02;fill:#FFD991;}
	.st12{opacity:4.477612e-02;fill:#FFD991;}
	.st13{opacity:4.975124e-02;fill:#FFD991;}
	.st14{opacity:5.472637e-02;fill:#FFD991;}
	.st15{opacity:5.970149e-02;fill:#FFD991;}
	.st16{opacity:6.467662e-02;fill:#FFD991;}
	.st17{opacity:6.965174e-02;fill:#FFD991;}
	.st18{opacity:7.462686e-02;fill:#FFD991;}
	.st19{opacity:7.960199e-02;fill:#FFD991;}
	.st20{opacity:8.457711e-02;fill:#FFD991;}
	.st21{opacity:8.955224e-02;fill:#FFD991;}
	.st22{opacity:9.452736e-02;fill:#FFD991;}
	.st23{opacity:9.950249e-02;fill:#FFD991;}
	.st24{opacity:0.1045;fill:#FFD991;}
	.st25{opacity:0.1095;fill:#FFD991;}
	.st26{opacity:0.1144;fill:#FFD991;}
	.st27{opacity:0.1194;fill:#FFD991;}
	.st28{opacity:0.1244;fill:#FFD991;}
	.st29{opacity:0.1294;fill:#FFD991;}
	.st30{opacity:0.1343;fill:#FFD991;}
	.st31{opacity:0.1393;fill:#FFD991;}
	.st32{opacity:0.1443;fill:#FFD991;}
	.st33{opacity:0.1493;fill:#FFD991;}
	.st34{opacity:0.1542;fill:#FFD991;}
	.st35{opacity:0.1592;fill:#FFD991;}
	.st36{opacity:0.1642;fill:#FFD991;}
	.st37{opacity:0.1692;fill:#FFD991;}
	.st38{opacity:0.1741;fill:#FFD991;}
	.st39{opacity:0.1791;fill:#FFD991;}
	.st40{opacity:0.1841;fill:#FFD991;}
	.st41{opacity:0.1891;fill:#FFD991;}
	.st42{opacity:0.194;fill:#FFD991;}
	.st43{opacity:0.199;fill:#FFD991;}
	.st44{opacity:0.204;fill:#FFD991;}
	.st45{opacity:0.209;fill:#FFD991;}
	.st46{opacity:0.2139;fill:#FFD991;}
	.st47{opacity:0.2189;fill:#FFD991;}
	.st48{opacity:0.2239;fill:#FFD991;}
	.st49{opacity:0.2289;fill:#FFD991;}
	.st50{opacity:0.2338;fill:#FFD991;}
	.st51{opacity:0.2388;fill:#FFD991;}
	.st52{opacity:0.2438;fill:#FFD991;}
	.st53{opacity:0.2488;fill:#FFD991;}
	.st54{opacity:0.2537;fill:#FFD991;}
	.st55{opacity:0.2587;fill:#FFD991;}
	.st56{opacity:0.2637;fill:#FFD991;}
	.st57{opacity:0.2687;fill:#FFD991;}
	.st58{opacity:0.2736;fill:#FFD991;}
	.st59{opacity:0.2786;fill:#FFD991;}
	.st60{opacity:0.2836;fill:#FFD991;}
	.st61{opacity:0.2886;fill:#FFD991;}
	.st62{opacity:0.2935;fill:#FFD991;}
	.st63{opacity:0.2985;fill:#FFD991;}
	.st64{opacity:0.3035;fill:#FFD991;}
	.st65{opacity:0.3085;fill:#FFD991;}
	.st66{opacity:0.3134;fill:#FFD991;}
	.st67{opacity:0.3184;fill:#FFD991;}
	.st68{opacity:0.3234;fill:#FFD991;}
	.st69{opacity:0.3284;fill:#FFD991;}
	.st70{opacity:0.3333;fill:#FFD991;}
	.st71{opacity:0.3383;fill:#FFD991;}
	.st72{opacity:0.3433;fill:#FFD991;}
	.st73{opacity:0.3483;fill:#FFD991;}
	.st74{opacity:0.3532;fill:#FFD991;}
	.st75{opacity:0.3582;fill:#FFD991;}
	.st76{opacity:0.3632;fill:#FFD991;}
	.st77{opacity:0.3682;fill:#FFD991;}
	.st78{opacity:0.3731;fill:#FFD991;}
	.st79{opacity:0.3781;fill:#FFD991;}
	.st80{opacity:0.3831;fill:#FFD991;}
	.st81{opacity:0.3881;fill:#FFD991;}
	.st82{opacity:0.393;fill:#FFD991;}
	.st83{opacity:0.398;fill:#FFD991;}
	.st84{opacity:0.403;fill:#FFD991;}
	.st85{opacity:0.408;fill:#FFD991;}
	.st86{opacity:0.4129;fill:#FFD991;}
	.st87{opacity:0.4179;fill:#FFD991;}
	.st88{opacity:0.4229;fill:#FFD991;}
	.st89{opacity:0.4279;fill:#FFD991;}
	.st90{opacity:0.4328;fill:#FFD991;}
	.st91{opacity:0.4378;fill:#FFD991;}
	.st92{opacity:0.4428;fill:#FFD991;}
	.st93{opacity:0.4478;fill:#FFD991;}
	.st94{opacity:0.4527;fill:#FFD991;}
	.st95{opacity:0.4577;fill:#FFD991;}
	.st96{opacity:0.4627;fill:#FFD991;}
	.st97{opacity:0.4677;fill:#FFD991;}
	.st98{opacity:0.4726;fill:#FFD991;}
	.st99{opacity:0.4776;fill:#FFD991;}
	.st100{opacity:0.4826;fill:#FFD991;}
	.st101{opacity:0.4876;fill:#FFD991;}
	.st102{opacity:0.4925;fill:#FFD991;}
	.st103{opacity:0.4975;fill:#FFD991;}
	.st104{opacity:0.5025;fill:#FFD991;}
	.st105{opacity:0.5075;fill:#FFD991;}
	.st106{opacity:0.5124;fill:#FFD991;}
	.st107{opacity:0.5174;fill:#FFD991;}
	.st108{opacity:0.5224;fill:#FFD991;}
	.st109{opacity:0.5274;fill:#FFD991;}
	.st110{opacity:0.5323;fill:#FFD991;}
	.st111{opacity:0.5373;fill:#FFD991;}
	.st112{opacity:0.5423;fill:#FFD991;}
	.st113{opacity:0.5473;fill:#FFD991;}
	.st114{opacity:0.5522;fill:#FFD991;}
	.st115{opacity:0.5572;fill:#FFD991;}
	.st116{opacity:0.5622;fill:#FFD991;}
	.st117{opacity:0.5672;fill:#FFD991;}
	.st118{opacity:0.5721;fill:#FFD991;}
	.st119{opacity:0.5771;fill:#FFD991;}
	.st120{opacity:0.5821;fill:#FFD991;}
	.st121{opacity:0.5871;fill:#FFD991;}
	.st122{opacity:0.592;fill:#FFD991;}
	.st123{opacity:0.597;fill:#FFD991;}
	.st124{opacity:0.602;fill:#FFD991;}
	.st125{opacity:0.607;fill:#FFD991;}
	.st126{opacity:0.6119;fill:#FFD991;}
	.st127{opacity:0.6169;fill:#FFD991;}
	.st128{opacity:0.6219;fill:#FFD991;}
	.st129{opacity:0.6269;fill:#FFD991;}
	.st130{opacity:0.6318;fill:#FFD991;}
	.st131{opacity:0.6368;fill:#FFD991;}
	.st132{opacity:0.6418;fill:#FFD991;}
	.st133{opacity:0.6468;fill:#FFD991;}
	.st134{opacity:0.6517;fill:#FFD991;}
	.st135{opacity:0.6567;fill:#FFD991;}
	.st136{opacity:0.6617;fill:#FFD991;}
	.st137{opacity:0.6667;fill:#FFD991;}
	.st138{opacity:0.6716;fill:#FFD991;}
	.st139{opacity:0.6766;fill:#FFD991;}
	.st140{opacity:0.6816;fill:#FFD991;}
	.st141{opacity:0.6866;fill:#FFD991;}
	.st142{opacity:0.6915;fill:#FFD991;}
	.st143{opacity:0.6965;fill:#FFD991;}
	.st144{opacity:0.7015;fill:#FFD991;}
	.st145{opacity:0.7065;fill:#FFD991;}
	.st146{opacity:0.7114;fill:#FFD991;}
	.st147{opacity:0.7164;fill:#FFD991;}
	.st148{opacity:0.7214;fill:#FFD991;}
	.st149{opacity:0.7264;fill:#FFD991;}
	.st150{opacity:0.7313;fill:#FFD991;}
	.st151{opacity:0.7363;fill:#FFD991;}
	.st152{opacity:0.7413;fill:#FFD991;}
	.st153{opacity:0.7463;fill:#FFD991;}
	.st154{opacity:0.7512;fill:#FFD991;}
	.st155{opacity:0.7562;fill:#FFD991;}
	.st156{opacity:0.7612;fill:#FFD991;}
	.st157{opacity:0.7662;fill:#FFD991;}
	.st158{opacity:0.7711;fill:#FFD991;}
	.st159{opacity:0.7761;fill:#FFD991;}
	.st160{opacity:0.7811;fill:#FFD991;}
	.st161{opacity:0.7861;fill:#FFD991;}
	.st162{opacity:0.791;fill:#FFD991;}
	.st163{opacity:0.796;fill:#FFD991;}
	.st164{opacity:0.801;fill:#FFD991;}
	.st165{opacity:0.806;fill:#FFD991;}
	.st166{opacity:0.8109;fill:#FFD991;}
	.st167{opacity:0.8159;fill:#FFD991;}
	.st168{opacity:0.8209;fill:#FFD991;}
	.st169{opacity:0.8259;fill:#FFD991;}
	.st170{opacity:0.8308;fill:#FFD991;}
	.st171{opacity:0.8358;fill:#FFD991;}
	.st172{opacity:0.8408;fill:#FFD991;}
	.st173{opacity:0.8458;fill:#FFD991;}
	.st174{opacity:0.8507;fill:#FFD991;}
	.st175{opacity:0.8557;fill:#FFD991;}
	.st176{opacity:0.8607;fill:#FFD991;}
	.st177{opacity:0.8657;fill:#FFD991;}
	.st178{opacity:0.8706;fill:#FFD991;}
	.st179{opacity:0.8756;fill:#FFD991;}
	.st180{opacity:0.8806;fill:#FFD991;}
	.st181{opacity:0.8856;fill:#FFD991;}
	.st182{opacity:0.8905;fill:#FFD991;}
	.st183{opacity:0.8955;fill:#FFD991;}
	.st184{opacity:0.9005;fill:#FFD991;}
	.st185{opacity:0.9055;fill:#FFD991;}
	.st186{opacity:0.9104;fill:#FFD991;}
	.st187{opacity:0.9154;fill:#FFD991;}
	.st188{opacity:0.9204;fill:#FFD991;}
	.st189{opacity:0.9254;fill:#FFD991;}
	.st190{opacity:0.9303;fill:#FFD991;}
	.st191{opacity:0.9353;fill:#FFD991;}
	.st192{opacity:0.9403;fill:#FFD991;}
	.st193{opacity:0.9453;fill:#FFD991;}
	.st194{opacity:0.9502;fill:#FFD991;}
	.st195{opacity:0.9552;fill:#FFD991;}
	.st196{opacity:0.9602;fill:#FFD991;}
	.st197{opacity:0.9652;fill:#FFD991;}
	.st198{opacity:0.9701;fill:#FFD991;}
	.st199{opacity:0.9751;fill:#FFD991;}
	.st200{opacity:0.9801;fill:#FFD991;}
	.st201{opacity:0.9851;fill:#FFD991;}
	.st202{opacity:0.99;fill:#FFD991;}
	.st203{opacity:0.995;fill:#FFD991;}
	.st204{fill:#FFD991;}
	.st205{opacity:0.5;fill:url(#SVGID_00000037679869631606509800000010805380402172781990_);enable-background:new    ;}
</style>
<g>
	<path d="M131.5,32.2V15.1l-6.8-10.3H23.8l-1-1.3l-22,0v52.3l1.4,1v58.4l7,9.7h96l0.9,1.4h26.8V33.9L131.5,32.2z M128.9,121.8H11.2
		l-6.8-10.3V8.2h118.3l6.2,9.3V121.8z"/>
	<path class="st0" d="M125.9,2.9h-9.2L114.5,0H67.8l-2.6,2.9H0.3L0,116.6l7.7,10.9h125.6V13.4L125.9,2.9z M132.8,126.3H106l-0.9-1.4
		h-96l-7-9.7V56.9l-1.4-1V3.6l22-0.1l1,1.3h100.9l6.8,10.3v17.1l1.2,1.6V126.3z"/>
	<g id="Reflection_00000135679736561047506380000012274004912314731934_" class="st1">
		<defs>
			<polygon id="SVGID_1_" class="st1" points="128.9,121.8 11.2,121.8 4.4,111.5 4.4,8.2 122.8,8.2 128.9,17.6 			"/>
		</defs>
		<clipPath id="SVGID_00000010273576879524237560000015183035382604923542_">
			<use xlink:href="#SVGID_1_"  style="overflow:visible;"/>
		</clipPath>
		<g style="clip-path:url(#SVGID_00000010273576879524237560000015183035382604923542_);">
			<g>
				<ellipse class="st3" cx="128.8" cy="65" rx="1.4" ry="31.6"/>
				<ellipse class="st4" cx="128.8" cy="65" rx="1.4" ry="31.4"/>
				<ellipse class="st5" cx="128.8" cy="65" rx="1.4" ry="31.3"/>
				<ellipse class="st6" cx="128.8" cy="65" rx="1.4" ry="31.2"/>
				<ellipse class="st7" cx="128.8" cy="65" rx="1.4" ry="31.1"/>
				<ellipse class="st8" cx="128.8" cy="65" rx="1.3" ry="30.9"/>
				<ellipse class="st9" cx="128.8" cy="65" rx="1.3" ry="30.8"/>
				<ellipse class="st10" cx="128.8" cy="65" rx="1.3" ry="30.7"/>
				<ellipse class="st11" cx="128.8" cy="65" rx="1.3" ry="30.6"/>
				<ellipse class="st12" cx="128.8" cy="65" rx="1.3" ry="30.4"/>
				<ellipse class="st13" cx="128.8" cy="65" rx="1.3" ry="30.3"/>
				<ellipse class="st14" cx="128.8" cy="65" rx="1.3" ry="30.2"/>
				<ellipse class="st15" cx="128.8" cy="65" rx="1.3" ry="30.1"/>
				<ellipse class="st16" cx="128.8" cy="65" rx="1.3" ry="29.9"/>
				<ellipse class="st17" cx="128.8" cy="65" rx="1.3" ry="29.8"/>
				<ellipse class="st18" cx="128.8" cy="65" rx="1.3" ry="29.7"/>
				<ellipse class="st19" cx="128.8" cy="65" rx="1.3" ry="29.6"/>
				<ellipse class="st20" cx="128.8" cy="65" rx="1.3" ry="29.4"/>
				<ellipse class="st21" cx="128.8" cy="65" rx="1.3" ry="29.3"/>
				<ellipse class="st22" cx="128.8" cy="65" rx="1.3" ry="29.2"/>
				<ellipse class="st23" cx="128.8" cy="65" rx="1.3" ry="29.1"/>
				<ellipse class="st24" cx="128.8" cy="65" rx="1.3" ry="28.9"/>
				<ellipse class="st25" cx="128.8" cy="65" rx="1.3" ry="28.8"/>
				<ellipse class="st26" cx="128.8" cy="65" rx="1.2" ry="28.7"/>
				<ellipse class="st27" cx="128.8" cy="65" rx="1.2" ry="28.5"/>
				<ellipse class="st28" cx="128.8" cy="65" rx="1.2" ry="28.4"/>
				<ellipse class="st29" cx="128.8" cy="65" rx="1.2" ry="28.3"/>
				<ellipse class="st30" cx="128.8" cy="65" rx="1.2" ry="28.2"/>
				<ellipse class="st31" cx="128.8" cy="65" rx="1.2" ry="28"/>
				<ellipse class="st32" cx="128.8" cy="65" rx="1.2" ry="27.9"/>
				<ellipse class="st33" cx="128.8" cy="65" rx="1.2" ry="27.8"/>
				<ellipse class="st34" cx="128.8" cy="65" rx="1.2" ry="27.7"/>
				<ellipse class="st35" cx="128.8" cy="65" rx="1.2" ry="27.5"/>
				<ellipse class="st36" cx="128.8" cy="65" rx="1.2" ry="27.4"/>
				<ellipse class="st37" cx="128.8" cy="65" rx="1.2" ry="27.3"/>
				<ellipse class="st38" cx="128.8" cy="65" rx="1.2" ry="27.2"/>
				<ellipse class="st39" cx="128.8" cy="65" rx="1.2" ry="27"/>
				<ellipse class="st40" cx="128.8" cy="65" rx="1.2" ry="26.9"/>
				<ellipse class="st41" cx="128.8" cy="65" rx="1.2" ry="26.8"/>
				<ellipse class="st42" cx="128.8" cy="65" rx="1.2" ry="26.7"/>
				<ellipse class="st43" cx="128.8" cy="65" rx="1.2" ry="26.5"/>
				<ellipse class="st44" cx="128.8" cy="65" rx="1.2" ry="26.4"/>
				<ellipse class="st45" cx="128.8" cy="65" rx="1.1" ry="26.3"/>
				<ellipse class="st46" cx="128.8" cy="65" rx="1.1" ry="26.2"/>
				<ellipse class="st47" cx="128.8" cy="65" rx="1.1" ry="26"/>
				<ellipse class="st48" cx="128.8" cy="65" rx="1.1" ry="25.9"/>
				<ellipse class="st49" cx="128.8" cy="65" rx="1.1" ry="25.8"/>
				<ellipse class="st50" cx="128.8" cy="65" rx="1.1" ry="25.7"/>
				<ellipse class="st51" cx="128.8" cy="65" rx="1.1" ry="25.5"/>
				<ellipse class="st52" cx="128.8" cy="65" rx="1.1" ry="25.4"/>
				<ellipse class="st53" cx="128.8" cy="65" rx="1.1" ry="25.3"/>
				<ellipse class="st54" cx="128.8" cy="65" rx="1.1" ry="25.2"/>
				<ellipse class="st55" cx="128.8" cy="65" rx="1.1" ry="25"/>
				<ellipse class="st56" cx="128.8" cy="65" rx="1.1" ry="24.9"/>
				<ellipse class="st57" cx="128.8" cy="65" rx="1.1" ry="24.8"/>
				<ellipse class="st58" cx="128.8" cy="65" rx="1.1" ry="24.7"/>
				<ellipse class="st59" cx="128.8" cy="65" rx="1.1" ry="24.5"/>
				<ellipse class="st60" cx="128.8" cy="65" rx="1.1" ry="24.4"/>
				<ellipse class="st61" cx="128.8" cy="65" rx="1.1" ry="24.3"/>
				<ellipse class="st62" cx="128.8" cy="65" rx="1.1" ry="24.2"/>
				<ellipse class="st63" cx="128.8" cy="65" rx="1" ry="24"/>
				<ellipse class="st64" cx="128.8" cy="65" rx="1" ry="23.9"/>
				<ellipse class="st65" cx="128.8" cy="65" rx="1" ry="23.8"/>
				<ellipse class="st66" cx="128.8" cy="65" rx="1" ry="23.6"/>
				<ellipse class="st67" cx="128.8" cy="65" rx="1" ry="23.5"/>
				<ellipse class="st68" cx="128.8" cy="65" rx="1" ry="23.4"/>
				<ellipse class="st69" cx="128.8" cy="65" rx="1" ry="23.3"/>
				<ellipse class="st70" cx="128.8" cy="65" rx="1" ry="23.1"/>
				<ellipse class="st71" cx="128.8" cy="65" rx="1" ry="23"/>
				<ellipse class="st72" cx="128.8" cy="65" rx="1" ry="22.9"/>
				<ellipse class="st73" cx="128.8" cy="65" rx="1" ry="22.8"/>
				<ellipse class="st74" cx="128.8" cy="65" rx="1" ry="22.6"/>
				<ellipse class="st75" cx="128.8" cy="65" rx="1" ry="22.5"/>
				<ellipse class="st76" cx="128.8" cy="65" rx="1" ry="22.4"/>
				<ellipse class="st77" cx="128.8" cy="65" rx="1" ry="22.3"/>
				<ellipse class="st78" cx="128.8" cy="65" rx="1" ry="22.1"/>
				<ellipse class="st79" cx="128.8" cy="65" rx="1" ry="22"/>
				<ellipse class="st80" cx="128.8" cy="65" rx="1" ry="21.9"/>
				<ellipse class="st81" cx="128.8" cy="65" rx="0.9" ry="21.8"/>
				<ellipse class="st82" cx="128.8" cy="65" rx="0.9" ry="21.6"/>
				<ellipse class="st83" cx="128.8" cy="65" rx="0.9" ry="21.5"/>
				<ellipse class="st84" cx="128.8" cy="65" rx="0.9" ry="21.4"/>
				<ellipse class="st85" cx="128.8" cy="65" rx="0.9" ry="21.3"/>
				<ellipse class="st86" cx="128.8" cy="65" rx="0.9" ry="21.1"/>
				<ellipse class="st87" cx="128.8" cy="65" rx="0.9" ry="21"/>
				<ellipse class="st88" cx="128.8" cy="65" rx="0.9" ry="20.9"/>
				<ellipse class="st89" cx="128.8" cy="65" rx="0.9" ry="20.8"/>
				<ellipse class="st90" cx="128.8" cy="65" rx="0.9" ry="20.6"/>
				<ellipse class="st91" cx="128.8" cy="65" rx="0.9" ry="20.5"/>
				<ellipse class="st92" cx="128.8" cy="65" rx="0.9" ry="20.4"/>
				<ellipse class="st93" cx="128.8" cy="65" rx="0.9" ry="20.3"/>
				<ellipse class="st94" cx="128.8" cy="65" rx="0.9" ry="20.1"/>
				<ellipse class="st95" cx="128.8" cy="65" rx="0.9" ry="20"/>
				<ellipse class="st96" cx="128.8" cy="65" rx="0.9" ry="19.9"/>
				<ellipse class="st97" cx="128.8" cy="65" rx="0.9" ry="19.8"/>
				<ellipse class="st98" cx="128.8" cy="65" rx="0.9" ry="19.6"/>
				<ellipse class="st99" cx="128.8" cy="65" rx="0.8" ry="19.5"/>
				<ellipse class="st100" cx="128.8" cy="65" rx="0.8" ry="19.4"/>
				<ellipse class="st101" cx="128.8" cy="65" rx="0.8" ry="19.3"/>
				<ellipse class="st102" cx="128.8" cy="65" rx="0.8" ry="19.1"/>
				<ellipse class="st103" cx="128.8" cy="65" rx="0.8" ry="19"/>
				<ellipse class="st104" cx="128.8" cy="65" rx="0.8" ry="18.9"/>
				<ellipse class="st105" cx="128.8" cy="65" rx="0.8" ry="18.7"/>
				<ellipse class="st106" cx="128.8" cy="65" rx="0.8" ry="18.6"/>
				<ellipse class="st107" cx="128.8" cy="65" rx="0.8" ry="18.5"/>
				<ellipse class="st108" cx="128.8" cy="65" rx="0.8" ry="18.4"/>
				<ellipse class="st109" cx="128.8" cy="65" rx="0.8" ry="18.2"/>
				<ellipse class="st110" cx="128.8" cy="65" rx="0.8" ry="18.1"/>
				<ellipse class="st111" cx="128.8" cy="65" rx="0.8" ry="18"/>
				<ellipse class="st112" cx="128.8" cy="65" rx="0.8" ry="17.9"/>
				<ellipse class="st113" cx="128.8" cy="65" rx="0.8" ry="17.7"/>
				<ellipse class="st114" cx="128.8" cy="65" rx="0.8" ry="17.6"/>
				<ellipse class="st115" cx="128.8" cy="65" rx="0.8" ry="17.5"/>
				<ellipse class="st116" cx="128.8" cy="65" rx="0.8" ry="17.4"/>
				<ellipse class="st117" cx="128.8" cy="65" rx="0.8" ry="17.2"/>
				<ellipse class="st118" cx="128.8" cy="65" rx="0.7" ry="17.1"/>
				<ellipse class="st119" cx="128.8" cy="65" rx="0.7" ry="17"/>
				<ellipse class="st120" cx="128.8" cy="65" rx="0.7" ry="16.9"/>
				<ellipse class="st121" cx="128.8" cy="65" rx="0.7" ry="16.7"/>
				<ellipse class="st122" cx="128.8" cy="65" rx="0.7" ry="16.6"/>
				<ellipse class="st123" cx="128.8" cy="65" rx="0.7" ry="16.5"/>
				<ellipse class="st124" cx="128.8" cy="65" rx="0.7" ry="16.4"/>
				<ellipse class="st125" cx="128.8" cy="65" rx="0.7" ry="16.2"/>
				<ellipse class="st126" cx="128.8" cy="65" rx="0.7" ry="16.1"/>
				<ellipse class="st127" cx="128.8" cy="65" rx="0.7" ry="16"/>
				<ellipse class="st128" cx="128.8" cy="65" rx="0.7" ry="15.9"/>
				<ellipse class="st129" cx="128.8" cy="65" rx="0.7" ry="15.7"/>
				<ellipse class="st130" cx="128.8" cy="65" rx="0.7" ry="15.6"/>
				<ellipse class="st131" cx="128.8" cy="65" rx="0.7" ry="15.5"/>
				<ellipse class="st132" cx="128.8" cy="65" rx="0.7" ry="15.4"/>
				<ellipse class="st133" cx="128.8" cy="65" rx="0.7" ry="15.2"/>
				<ellipse class="st134" cx="128.8" cy="65" rx="0.7" ry="15.1"/>
				<ellipse class="st135" cx="128.8" cy="65" rx="0.7" ry="15"/>
				<ellipse class="st136" cx="128.8" cy="65" rx="0.6" ry="14.9"/>
				<ellipse class="st137" cx="128.8" cy="65" rx="0.6" ry="14.7"/>
				<ellipse class="st138" cx="128.8" cy="65" rx="0.6" ry="14.6"/>
				<ellipse class="st139" cx="128.8" cy="65" rx="0.6" ry="14.5"/>
				<ellipse class="st140" cx="128.8" cy="65" rx="0.6" ry="14.4"/>
				<ellipse class="st141" cx="128.8" cy="65" rx="0.6" ry="14.2"/>
				<ellipse class="st142" cx="128.8" cy="65" rx="0.6" ry="14.1"/>
				<ellipse class="st143" cx="128.8" cy="65" rx="0.6" ry="14"/>
				<ellipse class="st144" cx="128.8" cy="65" rx="0.6" ry="13.8"/>
				<ellipse class="st145" cx="128.8" cy="65" rx="0.6" ry="13.7"/>
				<ellipse class="st146" cx="128.8" cy="65" rx="0.6" ry="13.6"/>
				<ellipse class="st147" cx="128.8" cy="65" rx="0.6" ry="13.5"/>
				<ellipse class="st148" cx="128.8" cy="65" rx="0.6" ry="13.3"/>
				<ellipse class="st149" cx="128.8" cy="65" rx="0.6" ry="13.2"/>
				<ellipse class="st150" cx="128.8" cy="65" rx="0.6" ry="13.1"/>
				<ellipse class="st151" cx="128.8" cy="65" rx="0.6" ry="13"/>
				<ellipse class="st152" cx="128.8" cy="65" rx="0.6" ry="12.8"/>
				<ellipse class="st153" cx="128.8" cy="65" rx="0.6" ry="12.7"/>
				<ellipse class="st154" cx="128.8" cy="65" rx="0.5" ry="12.6"/>
				<ellipse class="st155" cx="128.8" cy="65" rx="0.5" ry="12.5"/>
				<ellipse class="st156" cx="128.8" cy="65" rx="0.5" ry="12.3"/>
				<ellipse class="st157" cx="128.8" cy="65" rx="0.5" ry="12.2"/>
				<ellipse class="st158" cx="128.8" cy="65" rx="0.5" ry="12.1"/>
				<ellipse class="st159" cx="128.8" cy="65" rx="0.5" ry="12"/>
				<ellipse class="st160" cx="128.8" cy="65" rx="0.5" ry="11.8"/>
				<ellipse class="st161" cx="128.8" cy="65" rx="0.5" ry="11.7"/>
				<ellipse class="st162" cx="128.8" cy="65" rx="0.5" ry="11.6"/>
				<ellipse class="st163" cx="128.8" cy="65" rx="0.5" ry="11.5"/>
				<ellipse class="st164" cx="128.8" cy="65" rx="0.5" ry="11.3"/>
				<ellipse class="st165" cx="128.8" cy="65" rx="0.5" ry="11.2"/>
				<ellipse class="st166" cx="128.8" cy="65" rx="0.5" ry="11.1"/>
				<ellipse class="st167" cx="128.8" cy="65" rx="0.5" ry="11"/>
				<ellipse class="st168" cx="128.8" cy="65" rx="0.5" ry="10.8"/>
				<ellipse class="st169" cx="128.8" cy="65" rx="0.5" ry="10.7"/>
				<ellipse class="st170" cx="128.8" cy="65" rx="0.5" ry="10.6"/>
				<ellipse class="st171" cx="128.8" cy="65" rx="0.5" ry="10.5"/>
				<ellipse class="st172" cx="128.8" cy="65" rx="0.5" ry="10.3"/>
				<ellipse class="st173" cx="128.8" cy="65" rx="0.4" ry="10.2"/>
				<ellipse class="st174" cx="128.8" cy="65" rx="0.4" ry="10.1"/>
				<ellipse class="st175" cx="128.8" cy="65" rx="0.4" ry="10"/>
				<ellipse class="st176" cx="128.8" cy="65" rx="0.4" ry="9.8"/>
				<ellipse class="st177" cx="128.8" cy="65" rx="0.4" ry="9.7"/>
				<ellipse class="st178" cx="128.8" cy="65" rx="0.4" ry="9.6"/>
				<ellipse class="st179" cx="128.8" cy="65" rx="0.4" ry="9.5"/>
				<ellipse class="st180" cx="128.8" cy="65" rx="0.4" ry="9.3"/>
				<ellipse class="st181" cx="128.8" cy="65" rx="0.4" ry="9.2"/>
				<ellipse class="st182" cx="128.8" cy="65" rx="0.4" ry="9.1"/>
				<ellipse class="st183" cx="128.8" cy="65" rx="0.4" ry="9"/>
				<ellipse class="st184" cx="128.8" cy="65" rx="0.4" ry="8.8"/>
				<ellipse class="st185" cx="128.8" cy="65" rx="0.4" ry="8.7"/>
				<ellipse class="st186" cx="128.8" cy="65" rx="0.4" ry="8.6"/>
				<ellipse class="st187" cx="128.8" cy="65" rx="0.4" ry="8.4"/>
				<ellipse class="st188" cx="128.8" cy="65" rx="0.4" ry="8.3"/>
				<ellipse class="st189" cx="128.8" cy="65" rx="0.4" ry="8.2"/>
				<ellipse class="st190" cx="128.8" cy="65" rx="0.4" ry="8.1"/>
				<ellipse class="st191" cx="128.8" cy="65" rx="0.3" ry="7.9"/>
				<ellipse class="st192" cx="128.8" cy="65" rx="0.3" ry="7.8"/>
				<ellipse class="st193" cx="128.8" cy="65" rx="0.3" ry="7.7"/>
				<ellipse class="st194" cx="128.8" cy="65" rx="0.3" ry="7.6"/>
				<ellipse class="st195" cx="128.8" cy="65" rx="0.3" ry="7.4"/>
				<ellipse class="st196" cx="128.8" cy="65" rx="0.3" ry="7.3"/>
				<ellipse class="st197" cx="128.8" cy="65" rx="0.3" ry="7.2"/>
				<ellipse class="st198" cx="128.8" cy="65" rx="0.3" ry="7.1"/>
				<ellipse class="st199" cx="128.8" cy="65" rx="0.3" ry="6.9"/>
				<ellipse class="st200" cx="128.8" cy="65" rx="0.3" ry="6.8"/>
				<ellipse class="st201" cx="128.8" cy="65" rx="0.3" ry="6.7"/>
				<ellipse class="st202" cx="128.8" cy="65" rx="0.3" ry="6.6"/>
				<ellipse class="st203" cx="128.8" cy="65" rx="0.3" ry="6.4"/>
				<ellipse class="st204" cx="128.8" cy="65" rx="0.3" ry="6.3"/>
			</g>
			<g>
				<ellipse class="st3" cx="4.5" cy="65" rx="1.4" ry="31.6"/>
				<ellipse class="st4" cx="4.5" cy="65" rx="1.4" ry="31.4"/>
				<ellipse class="st5" cx="4.5" cy="65" rx="1.4" ry="31.3"/>
				<ellipse class="st6" cx="4.5" cy="65" rx="1.4" ry="31.2"/>
				<ellipse class="st7" cx="4.5" cy="65" rx="1.4" ry="31.1"/>
				<ellipse class="st8" cx="4.5" cy="65" rx="1.3" ry="30.9"/>
				<ellipse class="st9" cx="4.5" cy="65" rx="1.3" ry="30.8"/>
				<ellipse class="st10" cx="4.5" cy="65" rx="1.3" ry="30.7"/>
				<ellipse class="st11" cx="4.5" cy="65" rx="1.3" ry="30.6"/>
				<ellipse class="st12" cx="4.5" cy="65" rx="1.3" ry="30.4"/>
				<ellipse class="st13" cx="4.5" cy="65" rx="1.3" ry="30.3"/>
				<ellipse class="st14" cx="4.5" cy="65" rx="1.3" ry="30.2"/>
				<ellipse class="st15" cx="4.5" cy="65" rx="1.3" ry="30.1"/>
				<ellipse class="st16" cx="4.5" cy="65" rx="1.3" ry="29.9"/>
				<ellipse class="st17" cx="4.5" cy="65" rx="1.3" ry="29.8"/>
				<ellipse class="st18" cx="4.5" cy="65" rx="1.3" ry="29.7"/>
				<ellipse class="st19" cx="4.5" cy="65" rx="1.3" ry="29.6"/>
				<ellipse class="st20" cx="4.5" cy="65" rx="1.3" ry="29.4"/>
				<ellipse class="st21" cx="4.5" cy="65" rx="1.3" ry="29.3"/>
				<ellipse class="st22" cx="4.5" cy="65" rx="1.3" ry="29.2"/>
				<ellipse class="st23" cx="4.5" cy="65" rx="1.3" ry="29.1"/>
				<ellipse class="st24" cx="4.5" cy="65" rx="1.3" ry="28.9"/>
				<ellipse class="st25" cx="4.5" cy="65" rx="1.3" ry="28.8"/>
				<ellipse class="st26" cx="4.5" cy="65" rx="1.2" ry="28.7"/>
				<ellipse class="st27" cx="4.5" cy="65" rx="1.2" ry="28.5"/>
				<ellipse class="st28" cx="4.5" cy="65" rx="1.2" ry="28.4"/>
				<ellipse class="st29" cx="4.5" cy="65" rx="1.2" ry="28.3"/>
				<ellipse class="st30" cx="4.5" cy="65" rx="1.2" ry="28.2"/>
				<ellipse class="st31" cx="4.5" cy="65" rx="1.2" ry="28"/>
				<ellipse class="st32" cx="4.5" cy="65" rx="1.2" ry="27.9"/>
				<ellipse class="st33" cx="4.5" cy="65" rx="1.2" ry="27.8"/>
				<ellipse class="st34" cx="4.5" cy="65" rx="1.2" ry="27.7"/>
				<ellipse class="st35" cx="4.5" cy="65" rx="1.2" ry="27.5"/>
				<ellipse class="st36" cx="4.5" cy="65" rx="1.2" ry="27.4"/>
				<ellipse class="st37" cx="4.5" cy="65" rx="1.2" ry="27.3"/>
				<ellipse class="st38" cx="4.5" cy="65" rx="1.2" ry="27.2"/>
				<ellipse class="st39" cx="4.5" cy="65" rx="1.2" ry="27"/>
				<ellipse class="st40" cx="4.5" cy="65" rx="1.2" ry="26.9"/>
				<ellipse class="st41" cx="4.5" cy="65" rx="1.2" ry="26.8"/>
				<ellipse class="st42" cx="4.5" cy="65" rx="1.2" ry="26.7"/>
				<ellipse class="st43" cx="4.5" cy="65" rx="1.2" ry="26.5"/>
				<ellipse class="st44" cx="4.5" cy="65" rx="1.2" ry="26.4"/>
				<ellipse class="st45" cx="4.5" cy="65" rx="1.1" ry="26.3"/>
				<ellipse class="st46" cx="4.5" cy="65" rx="1.1" ry="26.2"/>
				<ellipse class="st47" cx="4.5" cy="65" rx="1.1" ry="26"/>
				<ellipse class="st48" cx="4.5" cy="65" rx="1.1" ry="25.9"/>
				<ellipse class="st49" cx="4.5" cy="65" rx="1.1" ry="25.8"/>
				<ellipse class="st50" cx="4.5" cy="65" rx="1.1" ry="25.7"/>
				<ellipse class="st51" cx="4.5" cy="65" rx="1.1" ry="25.5"/>
				<ellipse class="st52" cx="4.5" cy="65" rx="1.1" ry="25.4"/>
				<ellipse class="st53" cx="4.5" cy="65" rx="1.1" ry="25.3"/>
				<ellipse class="st54" cx="4.5" cy="65" rx="1.1" ry="25.2"/>
				<ellipse class="st55" cx="4.5" cy="65" rx="1.1" ry="25"/>
				<ellipse class="st56" cx="4.5" cy="65" rx="1.1" ry="24.9"/>
				<ellipse class="st57" cx="4.5" cy="65" rx="1.1" ry="24.8"/>
				<ellipse class="st58" cx="4.5" cy="65" rx="1.1" ry="24.7"/>
				<ellipse class="st59" cx="4.5" cy="65" rx="1.1" ry="24.5"/>
				<ellipse class="st60" cx="4.5" cy="65" rx="1.1" ry="24.4"/>
				<ellipse class="st61" cx="4.5" cy="65" rx="1.1" ry="24.3"/>
				<ellipse class="st62" cx="4.5" cy="65" rx="1.1" ry="24.2"/>
				<ellipse class="st63" cx="4.5" cy="65" rx="1" ry="24"/>
				<ellipse class="st64" cx="4.5" cy="65" rx="1" ry="23.9"/>
				<ellipse class="st65" cx="4.5" cy="65" rx="1" ry="23.8"/>
				<ellipse class="st66" cx="4.5" cy="65" rx="1" ry="23.6"/>
				<ellipse class="st67" cx="4.5" cy="65" rx="1" ry="23.5"/>
				<ellipse class="st68" cx="4.5" cy="65" rx="1" ry="23.4"/>
				<ellipse class="st69" cx="4.5" cy="65" rx="1" ry="23.3"/>
				<ellipse class="st70" cx="4.5" cy="65" rx="1" ry="23.1"/>
				<ellipse class="st71" cx="4.5" cy="65" rx="1" ry="23"/>
				<ellipse class="st72" cx="4.5" cy="65" rx="1" ry="22.9"/>
				<ellipse class="st73" cx="4.5" cy="65" rx="1" ry="22.8"/>
				<ellipse class="st74" cx="4.5" cy="65" rx="1" ry="22.6"/>
				<ellipse class="st75" cx="4.5" cy="65" rx="1" ry="22.5"/>
				<ellipse class="st76" cx="4.5" cy="65" rx="1" ry="22.4"/>
				<ellipse class="st77" cx="4.5" cy="65" rx="1" ry="22.3"/>
				<ellipse class="st78" cx="4.5" cy="65" rx="1" ry="22.1"/>
				<ellipse class="st79" cx="4.5" cy="65" rx="1" ry="22"/>
				<ellipse class="st80" cx="4.5" cy="65" rx="1" ry="21.9"/>
				<ellipse class="st81" cx="4.5" cy="65" rx="0.9" ry="21.8"/>
				<ellipse class="st82" cx="4.5" cy="65" rx="0.9" ry="21.6"/>
				<ellipse class="st83" cx="4.5" cy="65" rx="0.9" ry="21.5"/>
				<ellipse class="st84" cx="4.5" cy="65" rx="0.9" ry="21.4"/>
				<ellipse class="st85" cx="4.5" cy="65" rx="0.9" ry="21.3"/>
				<ellipse class="st86" cx="4.5" cy="65" rx="0.9" ry="21.1"/>
				<ellipse class="st87" cx="4.5" cy="65" rx="0.9" ry="21"/>
				<ellipse class="st88" cx="4.5" cy="65" rx="0.9" ry="20.9"/>
				<ellipse class="st89" cx="4.5" cy="65" rx="0.9" ry="20.8"/>
				<ellipse class="st90" cx="4.5" cy="65" rx="0.9" ry="20.6"/>
				<ellipse class="st91" cx="4.5" cy="65" rx="0.9" ry="20.5"/>
				<ellipse class="st92" cx="4.5" cy="65" rx="0.9" ry="20.4"/>
				<ellipse class="st93" cx="4.5" cy="65" rx="0.9" ry="20.3"/>
				<ellipse class="st94" cx="4.5" cy="65" rx="0.9" ry="20.1"/>
				<ellipse class="st95" cx="4.5" cy="65" rx="0.9" ry="20"/>
				<ellipse class="st96" cx="4.5" cy="65" rx="0.9" ry="19.9"/>
				<ellipse class="st97" cx="4.5" cy="65" rx="0.9" ry="19.8"/>
				<ellipse class="st98" cx="4.5" cy="65" rx="0.9" ry="19.6"/>
				<ellipse class="st99" cx="4.5" cy="65" rx="0.8" ry="19.5"/>
				<ellipse class="st100" cx="4.5" cy="65" rx="0.8" ry="19.4"/>
				<ellipse class="st101" cx="4.5" cy="65" rx="0.8" ry="19.3"/>
				<ellipse class="st102" cx="4.5" cy="65" rx="0.8" ry="19.1"/>
				<ellipse class="st103" cx="4.5" cy="65" rx="0.8" ry="19"/>
				<ellipse class="st104" cx="4.5" cy="65" rx="0.8" ry="18.9"/>
				<ellipse class="st105" cx="4.5" cy="65" rx="0.8" ry="18.7"/>
				<ellipse class="st106" cx="4.5" cy="65" rx="0.8" ry="18.6"/>
				<ellipse class="st107" cx="4.5" cy="65" rx="0.8" ry="18.5"/>
				<ellipse class="st108" cx="4.5" cy="65" rx="0.8" ry="18.4"/>
				<ellipse class="st109" cx="4.5" cy="65" rx="0.8" ry="18.2"/>
				<ellipse class="st110" cx="4.5" cy="65" rx="0.8" ry="18.1"/>
				<ellipse class="st111" cx="4.5" cy="65" rx="0.8" ry="18"/>
				<ellipse class="st112" cx="4.5" cy="65" rx="0.8" ry="17.9"/>
				<ellipse class="st113" cx="4.5" cy="65" rx="0.8" ry="17.7"/>
				<ellipse class="st114" cx="4.5" cy="65" rx="0.8" ry="17.6"/>
				<ellipse class="st115" cx="4.5" cy="65" rx="0.8" ry="17.5"/>
				<ellipse class="st116" cx="4.5" cy="65" rx="0.8" ry="17.4"/>
				<ellipse class="st117" cx="4.5" cy="65" rx="0.8" ry="17.2"/>
				<ellipse class="st118" cx="4.5" cy="65" rx="0.7" ry="17.1"/>
				<ellipse class="st119" cx="4.5" cy="65" rx="0.7" ry="17"/>
				<ellipse class="st120" cx="4.5" cy="65" rx="0.7" ry="16.9"/>
				<ellipse class="st121" cx="4.5" cy="65" rx="0.7" ry="16.7"/>
				<ellipse class="st122" cx="4.5" cy="65" rx="0.7" ry="16.6"/>
				<ellipse class="st123" cx="4.5" cy="65" rx="0.7" ry="16.5"/>
				<ellipse class="st124" cx="4.5" cy="65" rx="0.7" ry="16.4"/>
				<ellipse class="st125" cx="4.5" cy="65" rx="0.7" ry="16.2"/>
				<ellipse class="st126" cx="4.5" cy="65" rx="0.7" ry="16.1"/>
				<ellipse class="st127" cx="4.5" cy="65" rx="0.7" ry="16"/>
				<ellipse class="st128" cx="4.5" cy="65" rx="0.7" ry="15.9"/>
				<ellipse class="st129" cx="4.5" cy="65" rx="0.7" ry="15.7"/>
				<ellipse class="st130" cx="4.5" cy="65" rx="0.7" ry="15.6"/>
				<ellipse class="st131" cx="4.5" cy="65" rx="0.7" ry="15.5"/>
				<ellipse class="st132" cx="4.5" cy="65" rx="0.7" ry="15.4"/>
				<ellipse class="st133" cx="4.5" cy="65" rx="0.7" ry="15.2"/>
				<ellipse class="st134" cx="4.5" cy="65" rx="0.7" ry="15.1"/>
				<ellipse class="st135" cx="4.5" cy="65" rx="0.7" ry="15"/>
				<ellipse class="st136" cx="4.5" cy="65" rx="0.6" ry="14.9"/>
				<ellipse class="st137" cx="4.5" cy="65" rx="0.6" ry="14.7"/>
				<ellipse class="st138" cx="4.5" cy="65" rx="0.6" ry="14.6"/>
				<ellipse class="st139" cx="4.5" cy="65" rx="0.6" ry="14.5"/>
				<ellipse class="st140" cx="4.5" cy="65" rx="0.6" ry="14.4"/>
				<ellipse class="st141" cx="4.5" cy="65" rx="0.6" ry="14.2"/>
				<ellipse class="st142" cx="4.5" cy="65" rx="0.6" ry="14.1"/>
				<ellipse class="st143" cx="4.5" cy="65" rx="0.6" ry="14"/>
				<ellipse class="st144" cx="4.5" cy="65" rx="0.6" ry="13.8"/>
				<ellipse class="st145" cx="4.5" cy="65" rx="0.6" ry="13.7"/>
				<ellipse class="st146" cx="4.5" cy="65" rx="0.6" ry="13.6"/>
				<ellipse class="st147" cx="4.5" cy="65" rx="0.6" ry="13.5"/>
				<ellipse class="st148" cx="4.5" cy="65" rx="0.6" ry="13.3"/>
				<ellipse class="st149" cx="4.5" cy="65" rx="0.6" ry="13.2"/>
				<ellipse class="st150" cx="4.5" cy="65" rx="0.6" ry="13.1"/>
				<ellipse class="st151" cx="4.5" cy="65" rx="0.6" ry="13"/>
				<ellipse class="st152" cx="4.5" cy="65" rx="0.6" ry="12.8"/>
				<ellipse class="st153" cx="4.5" cy="65" rx="0.6" ry="12.7"/>
				<ellipse class="st154" cx="4.5" cy="65" rx="0.5" ry="12.6"/>
				<ellipse class="st155" cx="4.5" cy="65" rx="0.5" ry="12.5"/>
				<ellipse class="st156" cx="4.5" cy="65" rx="0.5" ry="12.3"/>
				<ellipse class="st157" cx="4.5" cy="65" rx="0.5" ry="12.2"/>
				<ellipse class="st158" cx="4.5" cy="65" rx="0.5" ry="12.1"/>
				<ellipse class="st159" cx="4.5" cy="65" rx="0.5" ry="12"/>
				<ellipse class="st160" cx="4.5" cy="65" rx="0.5" ry="11.8"/>
				<ellipse class="st161" cx="4.5" cy="65" rx="0.5" ry="11.7"/>
				<ellipse class="st162" cx="4.5" cy="65" rx="0.5" ry="11.6"/>
				<ellipse class="st163" cx="4.5" cy="65" rx="0.5" ry="11.5"/>
				<ellipse class="st164" cx="4.5" cy="65" rx="0.5" ry="11.3"/>
				<ellipse class="st165" cx="4.5" cy="65" rx="0.5" ry="11.2"/>
				<ellipse class="st166" cx="4.5" cy="65" rx="0.5" ry="11.1"/>
				<ellipse class="st167" cx="4.5" cy="65" rx="0.5" ry="11"/>
				<ellipse class="st168" cx="4.5" cy="65" rx="0.5" ry="10.8"/>
				<ellipse class="st169" cx="4.5" cy="65" rx="0.5" ry="10.7"/>
				<ellipse class="st170" cx="4.5" cy="65" rx="0.5" ry="10.6"/>
				<ellipse class="st171" cx="4.5" cy="65" rx="0.5" ry="10.5"/>
				<ellipse class="st172" cx="4.5" cy="65" rx="0.5" ry="10.3"/>
				<ellipse class="st173" cx="4.5" cy="65" rx="0.4" ry="10.2"/>
				<ellipse class="st174" cx="4.5" cy="65" rx="0.4" ry="10.1"/>
				<ellipse class="st175" cx="4.5" cy="65" rx="0.4" ry="10"/>
				<ellipse class="st176" cx="4.5" cy="65" rx="0.4" ry="9.8"/>
				<ellipse class="st177" cx="4.5" cy="65" rx="0.4" ry="9.7"/>
				<ellipse class="st178" cx="4.5" cy="65" rx="0.4" ry="9.6"/>
				<ellipse class="st179" cx="4.5" cy="65" rx="0.4" ry="9.5"/>
				<ellipse class="st180" cx="4.5" cy="65" rx="0.4" ry="9.3"/>
				<ellipse class="st181" cx="4.5" cy="65" rx="0.4" ry="9.2"/>
				<ellipse class="st182" cx="4.5" cy="65" rx="0.4" ry="9.1"/>
				<ellipse class="st183" cx="4.5" cy="65" rx="0.4" ry="9"/>
				<ellipse class="st184" cx="4.5" cy="65" rx="0.4" ry="8.8"/>
				<ellipse class="st185" cx="4.5" cy="65" rx="0.4" ry="8.7"/>
				<ellipse class="st186" cx="4.5" cy="65" rx="0.4" ry="8.6"/>
				<ellipse class="st187" cx="4.5" cy="65" rx="0.4" ry="8.4"/>
				<ellipse class="st188" cx="4.5" cy="65" rx="0.4" ry="8.3"/>
				<ellipse class="st189" cx="4.5" cy="65" rx="0.4" ry="8.2"/>
				<ellipse class="st190" cx="4.5" cy="65" rx="0.4" ry="8.1"/>
				<ellipse class="st191" cx="4.5" cy="65" rx="0.3" ry="7.9"/>
				<ellipse class="st192" cx="4.5" cy="65" rx="0.3" ry="7.8"/>
				<ellipse class="st193" cx="4.5" cy="65" rx="0.3" ry="7.7"/>
				<ellipse class="st194" cx="4.5" cy="65" rx="0.3" ry="7.6"/>
				<ellipse class="st195" cx="4.5" cy="65" rx="0.3" ry="7.4"/>
				<ellipse class="st196" cx="4.5" cy="65" rx="0.3" ry="7.3"/>
				<ellipse class="st197" cx="4.5" cy="65" rx="0.3" ry="7.2"/>
				<ellipse class="st198" cx="4.5" cy="65" rx="0.3" ry="7.1"/>
				<ellipse class="st199" cx="4.5" cy="65" rx="0.3" ry="6.9"/>
				<ellipse class="st200" cx="4.5" cy="65" rx="0.3" ry="6.8"/>
				<ellipse class="st201" cx="4.5" cy="65" rx="0.3" ry="6.7"/>
				<ellipse class="st202" cx="4.5" cy="65" rx="0.3" ry="6.6"/>
				<ellipse class="st203" cx="4.5" cy="65" rx="0.3" ry="6.4"/>
				<ellipse class="st204" cx="4.5" cy="65" rx="0.3" ry="6.3"/>
			</g>
			<g>
				<image style="overflow:visible;" width="88" height="87" xlink:href="7262717F.png"  transform="matrix(1 0 0 1 -32 -28.5)">
				</image>
			</g>
			<g>
				<image style="overflow:visible;" width="88" height="87" xlink:href="7262717A.png"  transform="matrix(1 0 0 1 78 71.5)">
				</image>
			</g>
			<g>
				<image style="overflow:visible;" width="93" height="74" xlink:href="72627179.png"  transform="matrix(1 0 0 1 20 -28.5)">
				</image>
			</g>
			<g>
				<image style="overflow:visible;" width="93" height="74" xlink:href="72627185.png"  transform="matrix(1 0 0 1 20 84.5)">
				</image>
			</g>
		</g>
	</g>
	
		<linearGradient id="SVGID_00000124878503141404947490000011085603698103885721_" gradientUnits="userSpaceOnUse" x1="66.67" y1="18.4" x2="66.67" y2="118.6" gradientTransform="matrix(1 0 0 -1 0 130)">
		<stop  offset="0" style="stop-color:#000000"/>
		<stop  offset="0.65" style="stop-color:#000000;stop-opacity:0"/>
	</linearGradient>
	
		<polygon style="opacity:0.5;fill:url(#SVGID_00000124878503141404947490000011085603698103885721_);enable-background:new    ;" points="
		128.9,121.8 11.2,121.8 4.4,111.5 4.4,8.2 122.8,8.2 128.9,17.6 	"/>
</g>
</svg>
